# xmcd
#
# Track frame offsets: 
#        150
#        11550
#        29212
#        42050
#        57285
#        72350
#        86525
#        99350
#        114650
#        130147
#
# Disc length: 1919 seconds
#
# Revision: 6
# Processed by: cddbd v1.5.2PL0 Copyright (c) Steve Scherf et al.
# Submitted via: ExactAudioCopyFreeDBPlugin 1.0
#
DISCID=82077d0a
DTITLE=Patty Loveless - Patty Loveless Sings Songs Of Love
DYEAR=1996
DGENRE=Country
TTITLE0=Timber I'm Falling In Love
TTITLE1=After All
TTITLE2=Lonely Days, Lonely Nights
TTITLE3=Jealous Bone
TTITLE4=Blue Side Of Town
TTITLE5=Wicked Ways
TTITLE6=I Did
TTITLE7=You Saved Me
TTITLE8=Can't Stop Myself From Loving You
TTITLE9=The Lonely Side Of Love
EXTD=
EXTT0=
EXTT1=
EXTT2=
EXTT3=
EXTT4=
EXTT5=
EXTT6=
EXTT7=
EXTT8=
EXTT9=
PLAYORDER=
